<svg xmlns="http://www.w3.org/2000/svg" viewBox="0 0 24 24" id="cashapp"><path fill="#01D031" d="m3.415 23.579.035.011c1.3.41 2.5.41 4.9.41h7.28c2.41 0 3.61 0 4.9-.4a5.134 5.134 0 0 0 3.049-3.026l.011-.035c.41-1.301.41-2.502.41-4.902V8.384c0-2.411 0-3.612-.41-4.912a5.13 5.13 0 0 0-3.015-3.04L20.54.42C19.23 0 18.04 0 15.62 0H8.36c-2.4 0-3.61 0-4.9.4A5.13 5.13 0 0 0 .421 3.426l-.011.035C0 4.762 0 5.962 0 8.363v7.273c0 2.411 0 3.601.4 4.902a5.132 5.132 0 0 0 3.015 3.041zm3.144-7.802 1-.97a.487.487 0 0 1 .67.001c.91.86 2.13 1.341 3.39 1.321 1.3 0 2.17-.55 2.17-1.421s-.88-1.1-2.54-1.721c-1.76-.63-3.43-1.521-3.43-3.601 0-2.421 2.01-3.601 4.39-3.712l.25-1.23a.481.481 0 0 1 .47-.38H14.719l.1.01c.26.06.43.31.37.57l-.27 1.371c.9.3 1.75.77 2.48 1.391l.02.02c.19.2.19.5 0 .68l-.929.93a.499.499 0 0 1-.671.01h.001a4.978 4.978 0 0 0-3.22-1.18c-.97 0-1.94.32-1.94 1.211 0 .9 1.04 1.2 2.24 1.651 2.1.7 3.84 1.581 3.84 3.642 0 2.241-1.74 3.782-4.58 3.952l-.26 1.201a.49.49 0 0 1-.48.39H9.63l-.09-.01a.502.502 0 0 1-.38-.593l-.001.003.28-1.271a6.554 6.554 0 0 1-2.884-1.574l.004.003v-.01a.489.489 0 0 1 0-.684z"></path></svg>